<svg width="120" height="120" viewBox="0 0 120 120" fill="none" xmlns="http://www.w3.org/2000/svg">
<rect width="120" height="120" rx="60" fill="#3B82F6" fill-opacity="0.2"/>
<g clip-path="url(#clip0_26_1919)">
<path d="M68.5773 72.5369C68.4092 70.2614 68.3618 67.9787 68.4355 65.6983L68.4327 65.7985C70.4845 63.6855 71.7644 60.9509 72.0682 58.031L72.0736 57.9742C72.9982 57.8983 74.4573 57.0046 74.8827 53.4621C75.0101 52.852 74.9612 52.2185 74.7417 51.6349C74.5221 51.0512 74.1408 50.5411 73.6418 50.1633L73.6336 50.1579C75.1391 45.6621 78.2645 31.7521 67.8491 30.3167C66.7773 28.4479 64.0336 27.5 60.4664 27.5C46.1945 27.76 44.4736 38.2006 47.5936 50.1579C47.0893 50.538 46.7047 51.0531 46.4849 51.6427C46.2651 52.2323 46.2193 52.8719 46.3527 53.4865L46.35 53.4648C46.7864 57.0019 48.2345 57.901 49.1591 57.9769C49.4838 60.9293 50.8044 63.6858 52.9064 65.7985C52.9738 68.1189 52.921 70.4412 52.7482 72.7562L52.7618 72.5369C49.9309 80.0769 30.8727 77.959 30 92.5H91.2491C90.3709 77.959 71.4 80.0769 68.5745 72.5369H68.5773Z" fill="#3B82F6"/>
</g>
<defs>
<clipPath id="clip0_26_1919">
<rect width="60" height="65" fill="white" transform="translate(30 27.5)"/>
</clipPath>
</defs>
</svg>
