<svg width="28" height="28" viewBox="0 0 28 28" fill="none" xmlns="http://www.w3.org/2000/svg">
<path d="M16.9166 19.2503L21.252 20.5547C22.0336 20.7925 22.7407 21.228 23.3047 21.8191C23.8688 22.4101 24.2709 23.1368 24.472 23.9287C24.6306 24.554 24.0905 25.0837 23.443 25.0837H4.55695C3.90945 25.0837 3.36929 24.554 3.52795 23.9287C3.72905 23.1368 4.13108 22.4101 4.69516 21.8191C5.25925 21.228 5.9663 20.7925 6.74795 20.5547L11.0833 19.2503V16.9893C9.00662 15.3642 7.58329 13.417 7.58329 9.23683C7.58329 5.04849 9.86412 2.91699 13.4073 2.91699C15.9168 2.91699 16.9621 4.08366 16.9621 4.08366C19.9231 4.08366 20.4166 6.53016 20.4166 9.23683C20.4166 13.417 18.9933 15.3642 16.9166 16.9893V19.2503Z" stroke="#3B82F6" stroke-width="1.5" stroke-linejoin="round"/>
</svg>
