<svg width="28" height="28" viewBox="0 0 28 28" fill="none" xmlns="http://www.w3.org/2000/svg">
<path d="M16.9166 19.2503L21.252 20.5547C22.0336 20.7925 22.7407 21.228 23.3047 21.8191C23.8688 22.4102 24.2709 23.1368 24.472 23.9287C24.6306 24.554 24.0905 25.0837 23.443 25.0837H4.55695C3.90945 25.0837 3.36929 24.554 3.52795 23.9287C3.72905 23.1368 4.13108 22.4102 4.69516 21.8191C5.25925 21.228 5.9663 20.7925 6.74795 20.5547L11.0833 19.2503V16.7362C9.58412 16.546 8.20162 16.2135 6.99995 15.769C7.58329 14.621 8.16662 12.899 8.16662 8.88218C8.16662 1.99418 14.5833 1.99418 16.3333 4.29018C19.8333 3.71618 19.8333 6.58618 19.8333 10.0302C19.8333 12.7835 20.6115 15.0037 21 15.7702C19.7983 16.2135 18.4158 16.546 16.9166 16.7362V19.2503Z" stroke="#EC4899" stroke-width="1.5" stroke-linejoin="round"/>
</svg>
