<svg width="20" height="20" viewBox="0 0 20 20" fill="none" xmlns="http://www.w3.org/2000/svg">
<path d="M8.67093 4.45417C8.78798 4.57135 8.85372 4.73021 8.85372 4.89583C8.85372 5.06146 8.78798 5.22031 8.67093 5.3375L4.52927 9.47917H16.5626C16.7284 9.47917 16.8873 9.54502 17.0045 9.66223C17.1218 9.77944 17.1876 9.93841 17.1876 10.1042C17.1876 10.2699 17.1218 10.4289 17.0045 10.5461C16.8873 10.6633 16.7284 10.7292 16.5626 10.7292H4.52927L8.67093 14.8708C8.7532 14.9472 8.81335 15.0444 8.84503 15.1521C8.8767 15.2598 8.87875 15.3741 8.85093 15.4828C8.82312 15.5916 8.76649 15.6909 8.687 15.7701C8.60751 15.8494 8.50811 15.9058 8.39927 15.9333C8.29062 15.9611 8.1765 15.9591 8.06888 15.9276C7.96126 15.8961 7.86411 15.8362 7.7876 15.7542L2.57927 10.5458C2.46223 10.4286 2.39648 10.2698 2.39648 10.1042C2.39648 9.93854 2.46223 9.77969 2.57927 9.6625L7.7876 4.45417C7.90479 4.33712 8.06364 4.27138 8.22927 4.27138C8.39489 4.27138 8.55375 4.33712 8.67093 4.45417Z" fill="#F8F7F7"/>
</svg>
