<svg width="25" height="24" viewBox="0 0 25 24" fill="none" xmlns="http://www.w3.org/2000/svg">
<path d="M8.50412 3.30908C8.66547 3.30908 8.82021 3.37318 8.9343 3.48727C9.0484 3.60136 9.11249 3.7561 9.11249 3.91745V5.0551H15.6455V3.92527C15.6455 3.76392 15.7096 3.60918 15.8237 3.49509C15.9378 3.381 16.0925 3.3169 16.2539 3.3169C16.4152 3.3169 16.57 3.381 16.684 3.49509C16.7981 3.60918 16.8622 3.76392 16.8622 3.92527V5.0551H19.2175C19.6783 5.0551 20.1203 5.23811 20.4463 5.5639C20.7722 5.88969 20.9555 6.33158 20.9557 6.79243V18.9537C20.9555 19.4146 20.7722 19.8565 20.4463 20.1822C20.1203 20.508 19.6783 20.691 19.2175 20.691H5.31193C4.85108 20.691 4.40909 20.508 4.08314 20.1822C3.75719 19.8565 3.57396 19.4146 3.57373 18.9537V6.79243C3.57396 6.33158 3.75719 5.88969 4.08314 5.5639C4.40909 5.23811 4.85108 5.0551 5.31193 5.0551H7.89575V3.91658C7.89598 3.75538 7.96018 3.60087 8.07425 3.48696C8.18831 3.37306 8.34292 3.30908 8.50412 3.30908ZM4.79047 10.0376V18.9537C4.79047 19.0222 4.80396 19.09 4.83016 19.1533C4.85637 19.2165 4.89478 19.274 4.9432 19.3224C4.99162 19.3709 5.04911 19.4093 5.11237 19.4355C5.17564 19.4617 5.24345 19.4752 5.31193 19.4752H19.2175C19.286 19.4752 19.3538 19.4617 19.417 19.4355C19.4803 19.4093 19.5378 19.3709 19.5862 19.3224C19.6346 19.274 19.6731 19.2165 19.6993 19.1533C19.7255 19.09 19.739 19.0222 19.739 18.9537V10.0498L4.79047 10.0376ZM9.36801 16.0144V17.4623H7.91922V16.0144H9.36801ZM12.9887 16.0144V17.4623H11.5408V16.0144H12.9887ZM16.6102 16.0144V17.4623H15.1614V16.0144H16.6102ZM9.36801 12.558V14.0059H7.91922V12.558H9.36801ZM12.9887 12.558V14.0059H11.5408V12.558H12.9887ZM16.6102 12.558V14.0059H15.1614V12.558H16.6102ZM7.89575 6.27097H5.31193C5.24345 6.27097 5.17564 6.28446 5.11237 6.31066C5.04911 6.33687 4.99162 6.37528 4.9432 6.4237C4.89478 6.47212 4.85637 6.52961 4.83016 6.59287C4.80396 6.65614 4.79047 6.72395 4.79047 6.79243V8.82177L19.739 8.83394V6.79243C19.739 6.72395 19.7255 6.65614 19.6993 6.59287C19.6731 6.52961 19.6346 6.47212 19.5862 6.4237C19.5378 6.37528 19.4803 6.33687 19.417 6.31066C19.3538 6.28446 19.286 6.27097 19.2175 6.27097H16.8622V7.07836C16.8622 7.23971 16.7981 7.39445 16.684 7.50854C16.57 7.62263 16.4152 7.68673 16.2539 7.68673C16.0925 7.68673 15.9378 7.62263 15.8237 7.50854C15.7096 7.39445 15.6455 7.23971 15.6455 7.07836V6.27097H9.11249V7.07054C9.11249 7.23189 9.0484 7.38663 8.9343 7.50072C8.82021 7.61481 8.66547 7.67891 8.50412 7.67891C8.34277 7.67891 8.18803 7.61481 8.07394 7.50072C7.95985 7.38663 7.89575 7.23189 7.89575 7.07054V6.27097Z" fill="#7B7B7B"/>
</svg>
