<svg width="120" height="120" viewBox="0 0 120 120" fill="none" xmlns="http://www.w3.org/2000/svg">
<rect width="120" height="120" rx="60" fill="#EC4899" fill-opacity="0.2"/>
<path d="M52.9614 30.667C55.7987 29.8169 58.7848 29.8198 61.4067 30.4531C63.5323 30.9668 65.5458 31.933 67.0562 33.3252C69.1114 33.1489 70.9404 33.3685 72.5024 34.0996C74.4302 35.0024 75.6275 36.5236 76.3589 38.2354C77.0698 39.8999 77.3821 41.8331 77.5327 43.7832C77.6842 45.7458 77.6831 47.9011 77.6831 50.04C77.6831 56.5858 79.6413 61.8177 80.5093 63.4482C80.8067 64.0067 80.8394 64.6603 80.5991 65.2432C80.3586 65.8259 79.8676 66.2841 79.2505 66.501C76.4559 67.482 73.3337 68.2435 69.9937 68.7588V71.54L79.7798 74.3408L79.7886 74.3438C82.2277 75.0501 84.4342 76.3448 86.1948 78.0996C87.9556 79.8553 89.2134 82.015 89.8413 84.3672C90.7349 87.7187 87.6427 90.001 84.8911 90.001H35.105C32.3536 90.0004 29.2623 87.7183 30.1558 84.3672L30.4194 83.4961C31.1043 81.4828 32.2575 79.6362 33.7983 78.0996C35.5592 76.3438 37.7686 75.0505 40.2085 74.3438L40.2173 74.3408L50.0024 71.54V68.7588C46.6627 68.2435 43.5408 67.4819 40.7456 66.498C40.1288 66.2806 39.6368 65.8202 39.397 65.2373C39.1578 64.6545 39.189 64.0002 39.4868 63.4424C40.8141 60.9564 42.3139 57.0031 42.314 47.1621C42.314 42.5017 43.4569 38.8097 45.4224 36.0352C47.3938 33.2528 50.1 31.5247 52.9614 30.667ZM57.894 54.8789C57.894 55.0697 57.901 55.2505 57.9116 55.4219C57.8984 54.5233 57.8941 54.2501 57.894 54.8789Z" fill="#EC4899"/>
</svg>
