<svg width="56" height="56" viewBox="0 0 56 56" fill="none" xmlns="http://www.w3.org/2000/svg">
<circle cx="28" cy="28" r="28" fill="#B7924F" fill-opacity="0.1"/>
<path d="M30.0507 35.878C29.7223 36.5968 29.5053 37.3767 29.4221 38.1946L36.3711 36.7365C36.6995 36.018 36.9164 35.2379 36.9997 34.4199L30.0507 35.878Z" fill="#D3AB55"/>
<path d="M36.3529 32.3292C36.691 31.5586 36.9145 30.7219 37.0001 29.8446L31.4274 31.0634V28.7204L36.3528 27.644C36.6908 26.8733 36.9143 26.0366 36.9999 25.1593L31.4273 26.3771V17.9507C30.5734 18.4438 29.815 19.1001 29.1986 19.8742V26.8645L26.9699 27.3516V16.8047C26.116 17.2976 25.3577 17.954 24.7412 18.7282V27.8386L19.7545 28.9283C19.4165 29.699 19.1929 30.5357 19.1071 31.413L24.7412 30.1817V33.1323L18.7031 34.4519C18.3651 35.2226 18.1416 36.0593 18.056 36.9365L24.3762 35.5553C24.8907 35.4453 25.3329 35.1324 25.6204 34.702L26.7795 32.9348C26.8998 32.7519 26.9699 32.5311 26.9699 32.2937V29.6945L29.1986 29.2074V33.8935L36.3529 32.3292Z" fill="#D3AB55"/>
</svg>
